# xmcd CD database file generated by grip 1.8
# 
# Track frame offsets:
#       150
#       13635
#       28520
#       43703
#       57333
#       70955
#       84840
#       98025
#       110408
#       121900
#       133105
#       144225
#       154273
#       165510
#       178313
#       190953
#       201295
#       217678
#       231113
#       244988
# 
# Disc length: 3440 seconds
# 
# Revision: 3
# Processed by: cddbd v1.4b41PL1 Copyright (c) Steve Scherf et al.
# Submitted via: grip 1.8
# 
DISCID=120d6e14
DTITLE=Elmore James - Dust My Broom
DYEAR=1900
DGENRE=
TTITLE0=Dust My Broom
TTITLE1=Pickin' The Blues
TTITLE2=Everyday I Have The Blues
TTITLE3=Anna Lee
TTITLE4=Standing At The Crossroads
TTITLE5=My Bleeding Heart
TTITLE6=My Kind Of Woman
TTITLE7=Got To Move
TTITLE8=So Unkind
TTITLE9=Person To Person
TTITLE10=One Way Out
TTITLE11=Go Back Home Again
TTITLE12=Look On Yonder Wall
TTITLE13=Shake Your Moneymaker
TTITLE14=Mean Mistreatin' Mama
TTITLE15=Sunnyland Train
TTITLE16=You Know You Done Me Wrong
TTITLE17=My Baby's Gone
TTITLE18=Find My Kind Of Woman
TTITLE19=Look On Yonder Wall
EXTD=
EXTT0=
EXTT1=
EXTT2=
EXTT3=
EXTT4=
EXTT5=
EXTT6=
EXTT7=
EXTT8=
EXTT9=
EXTT10=
EXTT11=
EXTT12=
EXTT13=
EXTT14=
EXTT15=
EXTT16=
EXTT17=
EXTT18=
EXTT19=
PLAYORDER=
